<svg width="30" height="32" viewBox="0 0 30 32" fill="none" xmlns="http://www.w3.org/2000/svg">
<path fill-rule="evenodd" clip-rule="evenodd" d="M15 16.625C15.2984 16.625 15.5845 16.7435 15.7955 16.9545C16.0065 17.1655 16.125 17.4516 16.125 17.75V18.875H17.25C17.5484 18.875 17.8345 18.9935 18.0455 19.2045C18.2565 19.4155 18.375 19.7016 18.375 20C18.375 20.2984 18.2565 20.5845 18.0455 20.7955C17.8345 21.0065 17.5484 21.125 17.25 21.125H16.125V22.25C16.125 22.5484 16.0065 22.8345 15.7955 23.0455C15.5845 23.2565 15.2984 23.375 15 23.375C14.7016 23.375 14.4155 23.2565 14.2045 23.0455C13.9935 22.8345 13.875 22.5484 13.875 22.25V21.125H12.75C12.4516 21.125 12.1655 21.0065 11.9545 20.7955C11.7435 20.5845 11.625 20.2984 11.625 20C11.625 19.7016 11.7435 19.4155 11.9545 19.2045C12.1655 18.9935 12.4516 18.875 12.75 18.875H13.875V17.75C13.875 17.4516 13.9935 17.1655 14.2045 16.9545C14.4155 16.7435 14.7016 16.625 15 16.625Z" fill="#9C9C9C"/>
<path fill-rule="evenodd" clip-rule="evenodd" d="M14.922 0.875C13.5735 0.875 12.45 0.875 11.559 0.995C10.617 1.121 9.7665 1.4 9.084 2.0825C8.4 2.7665 8.121 3.617 7.995 4.5575C7.875 5.45 7.875 6.575 7.875 7.922V8.039C4.8435 8.138 3.0225 8.492 1.758 9.758C-1.78814e-07 11.5145 0 14.3435 0 20C0 25.6565 -1.78814e-07 28.4855 1.758 30.242C3.5145 32 6.3435 32 12 32H18C23.6565 32 26.4855 32 28.242 30.242C30 28.4855 30 25.6565 30 20C30 14.3435 30 11.5145 28.242 9.758C26.9775 8.492 25.1565 8.138 22.125 8.039V7.922C22.125 6.575 22.125 5.45 22.005 4.559C21.879 3.617 21.6 2.7665 20.916 2.084C20.2335 1.4 19.383 1.121 18.441 0.995C17.55 0.875 16.425 0.875 15.078 0.875H14.922ZM19.875 8.003V8C19.875 6.554 19.872 5.582 19.776 4.8575C19.6815 4.166 19.521 3.869 19.326 3.674C19.131 3.479 18.834 3.3185 18.141 3.224C17.418 3.128 16.446 3.125 15 3.125C13.554 3.125 12.582 3.128 11.8575 3.2255C11.166 3.3185 10.869 3.479 10.674 3.6755C10.479 3.8705 10.3185 4.166 10.224 4.8575C10.1295 5.582 10.125 6.554 10.125 8V8.003C10.713 8 11.337 8 12 8H18C18.663 8 19.287 8 19.875 8.003ZM21 20C21 21.5913 20.3679 23.1174 19.2426 24.2426C18.1174 25.3679 16.5913 26 15 26C13.4087 26 11.8826 25.3679 10.7574 24.2426C9.63214 23.1174 9 21.5913 9 20C9 18.4087 9.63214 16.8826 10.7574 15.7574C11.8826 14.6321 13.4087 14 15 14C16.5913 14 18.1174 14.6321 19.2426 15.7574C20.3679 16.8826 21 18.4087 21 20Z" fill="#9C9C9C"/>
</svg>
