<svg width="34" height="28" viewBox="0 0 34 28" fill="none" xmlns="http://www.w3.org/2000/svg">
<path d="M31.1667 0.875H2.83333C1.2691 0.875 0 2.13477 0 3.6875V4.625H34V3.6875C34 2.13477 32.7309 0.875 31.1667 0.875ZM0 24.3125C0 25.8652 1.2691 27.125 2.83333 27.125H31.1667C32.7309 27.125 34 25.8652 34 24.3125V6.5H0V24.3125ZM20.7778 10.7188C20.7778 10.4609 20.9903 10.25 21.25 10.25H29.75C30.0097 10.25 30.2222 10.4609 30.2222 10.7188V11.6562C30.2222 11.9141 30.0097 12.125 29.75 12.125H21.25C20.9903 12.125 20.7778 11.9141 20.7778 11.6562V10.7188ZM20.7778 14.4688C20.7778 14.2109 20.9903 14 21.25 14H29.75C30.0097 14 30.2222 14.2109 30.2222 14.4688V15.4062C30.2222 15.6641 30.0097 15.875 29.75 15.875H21.25C20.9903 15.875 20.7778 15.6641 20.7778 15.4062V14.4688ZM20.7778 18.2188C20.7778 17.9609 20.9903 17.75 21.25 17.75H29.75C30.0097 17.75 30.2222 17.9609 30.2222 18.2188V19.1562C30.2222 19.4141 30.0097 19.625 29.75 19.625H21.25C20.9903 19.625 20.7778 19.4141 20.7778 19.1562V18.2188ZM10.3889 10.25C12.4726 10.25 14.1667 11.9316 14.1667 14C14.1667 16.0684 12.4726 17.75 10.3889 17.75C8.30521 17.75 6.61111 16.0684 6.61111 14C6.61111 11.9316 8.30521 10.25 10.3889 10.25ZM3.96076 22.2148C4.4566 20.709 5.87917 19.625 7.55556 19.625H8.03958C8.76562 19.9238 9.5566 20.0938 10.3889 20.0938C11.2212 20.0938 12.0181 19.9238 12.7382 19.625H13.2222C14.8986 19.625 16.3212 20.709 16.817 22.2148C17.0059 22.7949 16.5101 23.375 15.8962 23.375H4.8816C4.26771 23.375 3.77187 22.7891 3.96076 22.2148Z" fill="#9C9C9C"/>
</svg>
