<svg width="30" height="32" viewBox="0 0 30 32" fill="none" xmlns="http://www.w3.org/2000/svg">
<path d="M17.6474 1.228C17.0969 1 16.3979 1 14.9999 1C13.6019 1 12.9029 1 12.3524 1.228C11.9882 1.37877 11.6573 1.59984 11.3785 1.87859C11.0998 2.15733 10.8787 2.48827 10.7279 2.8525C10.5899 3.187 10.5344 3.5785 10.5134 4.147C10.5041 4.55798 10.3904 4.95985 10.1832 5.31486C9.97588 5.66986 9.68176 5.96636 9.32844 6.1765C8.96979 6.37756 8.56591 6.48415 8.15474 6.48625C7.74358 6.48835 7.33863 6.38589 6.97794 6.1885C6.47394 5.9215 6.10944 5.7745 5.74794 5.7265C4.95942 5.62281 4.16199 5.83646 3.53094 6.3205C3.05994 6.685 2.70894 7.2895 2.00994 8.5C1.31094 9.7105 0.959943 10.315 0.883443 10.9075C0.831896 11.2982 0.857823 11.6952 0.959743 12.0758C1.06166 12.4565 1.23758 12.8133 1.47744 13.126C1.69944 13.414 2.00994 13.6555 2.49144 13.9585C3.20094 14.404 3.65694 15.163 3.65694 16C3.65694 16.837 3.20094 17.596 2.49144 18.04C2.00994 18.3445 1.69794 18.586 1.47744 18.874C1.23758 19.1867 1.06166 19.5435 0.959743 19.9242C0.857823 20.3048 0.831896 20.7018 0.883443 21.0925C0.961443 21.6835 1.31094 22.2895 2.00844 23.5C2.70894 24.7105 3.05844 25.315 3.53094 25.6795C3.8436 25.9194 4.20044 26.0953 4.5811 26.1972C4.96176 26.2991 5.35877 26.325 5.74944 26.2735C6.10944 26.2255 6.47394 26.0785 6.97794 25.8115C7.33863 25.6141 7.74358 25.5116 8.15474 25.5137C8.56591 25.5158 8.96979 25.6224 9.32844 25.8235C10.0529 26.2435 10.4834 27.016 10.5134 27.853C10.5344 28.423 10.5884 28.813 10.7279 29.1475C10.8787 29.5117 11.0998 29.8427 11.3785 30.1214C11.6573 30.4002 11.9882 30.6212 12.3524 30.772C12.9029 31 13.6019 31 14.9999 31C16.3979 31 17.0969 31 17.6474 30.772C18.0117 30.6212 18.3426 30.4002 18.6214 30.1214C18.9001 29.8427 19.1212 29.5117 19.2719 29.1475C19.4099 28.813 19.4654 28.423 19.4864 27.853C19.5164 27.016 19.9469 26.242 20.6714 25.8235C21.0301 25.6224 21.434 25.5158 21.8451 25.5137C22.2563 25.5116 22.6613 25.6141 23.0219 25.8115C23.5259 26.0785 23.8904 26.2255 24.2504 26.2735C24.6411 26.325 25.0381 26.2991 25.4188 26.1972C25.7994 26.0953 26.1563 25.9194 26.4689 25.6795C26.9414 25.3165 27.2909 24.7105 27.9899 23.5C28.6889 22.2895 29.0399 21.685 29.1164 21.0925C29.168 20.7018 29.1421 20.3048 29.0401 19.9242C28.9382 19.5435 28.7623 19.1867 28.5224 18.874C28.3004 18.586 27.9899 18.3445 27.5084 18.0415C27.157 17.8279 26.8657 17.5285 26.6618 17.1714C26.458 16.8143 26.3482 16.4112 26.3429 16C26.3429 15.163 26.7989 14.404 27.5084 13.96C27.9899 13.6555 28.3019 13.414 28.5224 13.126C28.7623 12.8133 28.9382 12.4565 29.0401 12.0758C29.1421 11.6952 29.168 11.2982 29.1164 10.9075C29.0384 10.3165 28.6889 9.7105 27.9914 8.5C27.2909 7.2895 26.9414 6.685 26.4689 6.3205C26.1563 6.08064 25.7994 5.90472 25.4188 5.8028C25.0381 5.70088 24.6411 5.67495 24.2504 5.7265C23.8904 5.7745 23.5259 5.9215 23.0204 6.1885C22.6599 6.38562 22.2553 6.48793 21.8444 6.48584C21.4335 6.48374 21.0299 6.3773 20.6714 6.1765C20.3181 5.96636 20.024 5.66986 19.8167 5.31486C19.6094 4.95985 19.4958 4.55798 19.4864 4.147C19.4654 3.577 19.4114 3.187 19.2719 2.8525C19.1212 2.48827 18.9001 2.15733 18.6214 1.87859C18.3426 1.59984 18.0117 1.37877 17.6474 1.228Z" fill="#E7344A" stroke="#333333" stroke-width="1.5"/>
<path d="M15 20.5C17.4853 20.5 19.5 18.4853 19.5 16C19.5 13.5147 17.4853 11.5 15 11.5C12.5147 11.5 10.5 13.5147 10.5 16C10.5 18.4853 12.5147 20.5 15 20.5Z" stroke="#333333" stroke-width="1.5"/>
</svg>
