<svg width="29" height="29" viewBox="0 0 29 29" fill="none" xmlns="http://www.w3.org/2000/svg">
<path d="M21 0.5C22.1478 0.499936 23.2523 0.938488 24.0874 1.72593C24.9225 2.51336 25.4252 3.59016 25.4925 4.736L25.5 5V20H26.625C27.5955 20 28.395 20.738 28.491 21.683L28.5 21.875V24.5C28.5001 25.6478 28.0615 26.7523 27.2741 27.5874C26.4866 28.4225 25.4098 28.9252 24.264 28.9925L24 29H9C7.85218 29.0001 6.74773 28.5615 5.91261 27.7741C5.07749 26.9866 4.57484 25.9098 4.5075 24.764L4.5 24.5V9.5H1.875C1.41081 9.50021 0.963048 9.32823 0.618351 9.01734C0.273655 8.70645 0.0565328 8.27875 0.00900007 7.817L6.99067e-09 7.625V5C-6.39326e-05 3.85218 0.438488 2.74773 1.22593 1.91261C2.01336 1.07749 3.09016 0.574839 4.236 0.5075L4.5 0.5H21ZM21 3.5H7.5V24.5C7.5 24.8978 7.65804 25.2794 7.93934 25.5607C8.22064 25.842 8.60218 26 9 26C9.39782 26 9.77936 25.842 10.0607 25.5607C10.342 25.2794 10.5 24.8978 10.5 24.5V21.875C10.5 20.84 11.34 20 12.375 20H22.5V5C22.5 4.60218 22.342 4.22064 22.0607 3.93934C21.7794 3.65804 21.3978 3.5 21 3.5ZM25.5 23H13.5V24.5C13.5 25.025 13.41 25.5305 13.245 26H24C24.3978 26 24.7794 25.842 25.0607 25.5607C25.342 25.2794 25.5 24.8978 25.5 24.5V23ZM15 14C15.3978 14 15.7794 14.158 16.0607 14.4393C16.342 14.7206 16.5 15.1022 16.5 15.5C16.5 15.8978 16.342 16.2794 16.0607 16.5607C15.7794 16.842 15.3978 17 15 17H12C11.6022 17 11.2206 16.842 10.9393 16.5607C10.658 16.2794 10.5 15.8978 10.5 15.5C10.5 15.1022 10.658 14.7206 10.9393 14.4393C11.2206 14.158 11.6022 14 12 14H15ZM18 8C18.3978 8 18.7794 8.15804 19.0607 8.43934C19.342 8.72064 19.5 9.10218 19.5 9.5C19.5 9.89782 19.342 10.2794 19.0607 10.5607C18.7794 10.842 18.3978 11 18 11H12C11.6022 11 11.2206 10.842 10.9393 10.5607C10.658 10.2794 10.5 9.89782 10.5 9.5C10.5 9.10218 10.658 8.72064 10.9393 8.43934C11.2206 8.15804 11.6022 8 12 8H18ZM4.5 3.5C4.1326 3.50005 3.77799 3.63493 3.50344 3.87907C3.22889 4.12321 3.05349 4.45962 3.0105 4.8245L3 5V6.5H4.5V3.5Z" fill="#9C9C9C"/>
</svg>
