<svg width="28" height="28" viewBox="0 0 28 28" fill="none" xmlns="http://www.w3.org/2000/svg">
<path d="M19.8333 16.3333C20.1428 16.3333 20.4395 16.2104 20.6583 15.9916C20.8771 15.7728 21 15.4761 21 15.1667C21 14.8572 20.8771 14.5605 20.6583 14.3417C20.4395 14.1229 20.1428 14 19.8333 14C19.5239 14 19.2272 14.1229 19.0084 14.3417C18.7896 14.5605 18.6667 14.8572 18.6667 15.1667C18.6667 15.4761 18.7896 15.7728 19.0084 15.9916C19.2272 16.2104 19.5239 16.3333 19.8333 16.3333ZM19.8333 21C20.1428 21 20.4395 20.8771 20.6583 20.6583C20.8771 20.4395 21 20.1428 21 19.8333C21 19.5239 20.8771 19.2272 20.6583 19.0084C20.4395 18.7896 20.1428 18.6667 19.8333 18.6667C19.5239 18.6667 19.2272 18.7896 19.0084 19.0084C18.7896 19.2272 18.6667 19.5239 18.6667 19.8333C18.6667 20.1428 18.7896 20.4395 19.0084 20.6583C19.2272 20.8771 19.5239 21 19.8333 21ZM15.1667 15.1667C15.1667 15.4761 15.0437 15.7728 14.825 15.9916C14.6062 16.2104 14.3094 16.3333 14 16.3333C13.6906 16.3333 13.3938 16.2104 13.175 15.9916C12.9562 15.7728 12.8333 15.4761 12.8333 15.1667C12.8333 14.8572 12.9562 14.5605 13.175 14.3417C13.3938 14.1229 13.6906 14 14 14C14.3094 14 14.6062 14.1229 14.825 14.3417C15.0437 14.5605 15.1667 14.8572 15.1667 15.1667ZM15.1667 19.8333C15.1667 20.1428 15.0437 20.4395 14.825 20.6583C14.6062 20.8771 14.3094 21 14 21C13.6906 21 13.3938 20.8771 13.175 20.6583C12.9562 20.4395 12.8333 20.1428 12.8333 19.8333C12.8333 19.5239 12.9562 19.2272 13.175 19.0084C13.3938 18.7896 13.6906 18.6667 14 18.6667C14.3094 18.6667 14.6062 18.7896 14.825 19.0084C15.0437 19.2272 15.1667 19.5239 15.1667 19.8333ZM8.16667 16.3333C8.47609 16.3333 8.77283 16.2104 8.99162 15.9916C9.21042 15.7728 9.33333 15.4761 9.33333 15.1667C9.33333 14.8572 9.21042 14.5605 8.99162 14.3417C8.77283 14.1229 8.47609 14 8.16667 14C7.85725 14 7.5605 14.1229 7.34171 14.3417C7.12292 14.5605 7 14.8572 7 15.1667C7 15.4761 7.12292 15.7728 7.34171 15.9916C7.5605 16.2104 7.85725 16.3333 8.16667 16.3333ZM8.16667 21C8.47609 21 8.77283 20.8771 8.99162 20.6583C9.21042 20.4395 9.33333 20.1428 9.33333 19.8333C9.33333 19.5239 9.21042 19.2272 8.99162 19.0084C8.77283 18.7896 8.47609 18.6667 8.16667 18.6667C7.85725 18.6667 7.5605 18.7896 7.34171 19.0084C7.12292 19.2272 7 19.5239 7 19.8333C7 20.1428 7.12292 20.4395 7.34171 20.6583C7.5605 20.8771 7.85725 21 8.16667 21Z" fill="#333333"/>
<path fill-rule="evenodd" clip-rule="evenodd" d="M8.16664 2.04102C8.3987 2.04102 8.62126 2.1332 8.78536 2.2973C8.94945 2.46139 9.04164 2.68395 9.04164 2.91602V3.80618C9.81397 3.79102 10.6645 3.79102 11.6001 3.79102H16.3986C17.3355 3.79102 18.186 3.79102 18.9583 3.80618V2.91602C18.9583 2.68395 19.0505 2.46139 19.2146 2.2973C19.3787 2.1332 19.6012 2.04102 19.8333 2.04102C20.0654 2.04102 20.2879 2.1332 20.452 2.2973C20.6161 2.46139 20.7083 2.68395 20.7083 2.91602V3.88085C21.0116 3.90418 21.2986 3.93335 21.5705 3.96952C22.9378 4.15385 24.045 4.54118 24.9188 5.41385C25.7915 6.28768 26.1788 7.39485 26.3631 8.76218C26.5416 10.0922 26.5416 11.7897 26.5416 13.934V16.398C26.5416 18.5423 26.5416 20.241 26.3631 21.5698C26.1788 22.9372 25.7915 24.0443 24.9188 24.9182C24.045 25.7908 22.9378 26.1782 21.5705 26.3625C20.2405 26.541 18.543 26.541 16.3986 26.541H11.6025C9.45814 26.541 7.75947 26.541 6.43064 26.3625C5.06331 26.1782 3.95614 25.7908 3.08231 24.9182C2.20964 24.0443 1.82231 22.9372 1.63797 21.5698C1.45947 20.2398 1.45947 18.5423 1.45947 16.398V13.934C1.45947 11.7897 1.45947 10.091 1.63797 8.76218C1.82231 7.39485 2.20964 6.28768 3.08231 5.41385C3.95614 4.54118 5.06331 4.15385 6.43064 3.96952C6.70247 3.93335 6.99064 3.90418 7.29281 3.88085V2.91602C7.29281 2.68415 7.38483 2.46177 7.54868 2.29771C7.71252 2.13365 7.93478 2.04132 8.16664 2.04102ZM6.66164 5.70435C5.48914 5.86185 4.81247 6.15818 4.31897 6.65168C3.82547 7.14518 3.52914 7.82185 3.37164 8.99552C3.34481 9.19385 3.32264 9.40385 3.30397 9.62435H24.696C24.6773 9.40268 24.6551 9.19385 24.6283 8.99435C24.4708 7.82185 24.1745 7.14518 23.681 6.65168C23.1875 6.15818 22.5108 5.86185 21.3371 5.70435C20.139 5.54335 18.5581 5.54102 16.3333 5.54102H11.6666C9.44181 5.54102 7.86214 5.54335 6.66164 5.70435ZM3.20831 13.9993C3.20831 13.003 3.20831 12.1362 3.22347 11.3743H24.7765C24.7916 12.1362 24.7916 13.003 24.7916 13.9993V16.3327C24.7916 18.5575 24.7893 20.1383 24.6283 21.3377C24.4708 22.5102 24.1745 23.1868 23.681 23.6803C23.1875 24.1738 22.5108 24.4702 21.3371 24.6277C20.139 24.7887 18.5581 24.791 16.3333 24.791H11.6666C9.44181 24.791 7.86214 24.7887 6.66164 24.6277C5.48914 24.4702 4.81247 24.1738 4.31897 23.6803C3.82547 23.1868 3.52914 22.5102 3.37164 21.3365C3.21064 20.1383 3.20831 18.5575 3.20831 16.3327V13.9993Z" fill="#333333"/>
</svg>
