<svg width="19" height="19" viewBox="0 0 19 19" fill="none" xmlns="http://www.w3.org/2000/svg">
<path d="M12.213 12.6187L12.7687 13.1225L12.7687 13.1225L12.213 12.6187ZM12.6116 12.1791L12.0559 11.6754L12.6116 12.1791ZM14.7261 11.8717L14.3388 12.514L14.7261 11.8717ZM16.3978 12.8797L16.0105 13.522L16.3978 12.8797ZM16.8689 16.039L17.4245 16.5427L16.8689 16.039ZM15.6259 17.4099L15.0703 16.9062L15.6259 17.4099ZM14.4667 18.0599L14.5438 18.8059L14.4667 18.0599ZM5.83835 13.946L6.39398 13.4422L5.83835 13.946ZM2.37646 5.19082C2.35526 4.77714 2.00274 4.45898 1.58907 4.48017C1.17539 4.50137 0.85723 4.8539 0.878424 5.26757L2.37646 5.19082ZM7.04178 6.91507L7.59741 7.41883L7.04178 6.91507ZM7.29274 6.63827L7.84837 7.14204V7.14204L7.29274 6.63827ZM7.42988 4.06243L8.05154 3.64286L7.42988 4.06243ZM6.32651 2.42756L5.70485 2.84712L5.70485 2.84712L6.32651 2.42756ZM3.04806 1.64791C2.76984 1.95477 2.79305 2.42908 3.09992 2.7073C3.40678 2.98552 3.88109 2.9623 4.15931 2.65544L3.04806 1.64791ZM8.68015 10.8117L9.23577 10.3079L8.68015 10.8117ZM8.26774 17.0494C8.61371 17.2771 9.07881 17.1813 9.30658 16.8354C9.53435 16.4894 9.43852 16.0243 9.09255 15.7965L8.26774 17.0494ZM12.2499 17.171C11.8453 17.0822 11.4454 17.3383 11.3567 17.7429C11.2679 18.1475 11.5239 18.5474 11.9285 18.6361L12.2499 17.171ZM12.7687 13.1225L13.1672 12.6829L12.0559 11.6754L11.6574 12.1149L12.7687 13.1225ZM14.3388 12.514L16.0105 13.522L16.7851 12.2375L15.1134 11.2294L14.3388 12.514ZM16.3133 15.5352L15.0703 16.9062L16.1815 17.9137L17.4245 16.5427L16.3133 15.5352ZM6.39398 13.4422C3.01412 9.71444 2.44711 6.56985 2.37646 5.19082L0.878424 5.26757C0.965528 6.96766 1.65446 10.448 5.28273 14.4498L6.39398 13.4422ZM7.59741 7.41883L7.84837 7.14204L6.73712 6.1345L6.48615 6.4113L7.59741 7.41883ZM8.05154 3.64286L6.94818 2.008L5.70485 2.84712L6.80821 4.48199L8.05154 3.64286ZM7.04178 6.91507C6.48615 6.4113 6.48548 6.41205 6.48481 6.41279C6.48458 6.41305 6.4839 6.4138 6.48344 6.41432C6.48252 6.41534 6.48158 6.41639 6.48063 6.41746C6.47873 6.4196 6.47678 6.42182 6.47477 6.42414C6.47075 6.42877 6.46652 6.43375 6.46209 6.43908C6.45323 6.44975 6.44358 6.46186 6.43334 6.47542C6.41284 6.50255 6.38994 6.53553 6.36608 6.57459C6.31822 6.65294 6.26708 6.75488 6.22402 6.88166C6.13657 7.13912 6.08977 7.47729 6.14858 7.89782C6.26431 8.72529 6.78166 9.83432 8.12452 11.3154L9.23577 10.3079C7.99301 8.93719 7.69117 8.09792 7.63412 7.69005C7.60655 7.49291 7.63496 7.39164 7.64432 7.36409C7.64966 7.34836 7.65233 7.3464 7.64618 7.35647C7.64317 7.3614 7.63809 7.36914 7.63021 7.37958C7.62627 7.38479 7.62163 7.39068 7.6162 7.39722C7.61348 7.40049 7.61056 7.40393 7.60744 7.40753C7.60587 7.40934 7.60426 7.41118 7.60259 7.41306C7.60175 7.414 7.6009 7.41495 7.60004 7.41592C7.59961 7.4164 7.59895 7.41713 7.59873 7.41737C7.59807 7.4181 7.59741 7.41883 7.04178 6.91507ZM8.12452 11.3154C9.45901 12.7873 10.4841 13.3868 11.2904 13.524C11.7071 13.5949 12.0493 13.5387 12.311 13.4305C12.4384 13.3779 12.539 13.3162 12.6146 13.26C12.6523 13.232 12.6838 13.2054 12.7093 13.182C12.722 13.1702 12.7333 13.1593 12.7432 13.1493C12.7481 13.1443 12.7527 13.1396 12.757 13.1351C12.7591 13.1328 12.7611 13.1307 12.7631 13.1286C12.764 13.1275 12.765 13.1265 12.7659 13.1255C12.7664 13.1249 12.7671 13.1242 12.7673 13.1239C12.768 13.1232 12.7687 13.1225 12.213 12.6187C11.6574 12.1149 11.6581 12.1142 11.6587 12.1135C11.659 12.1132 11.6596 12.1125 11.6601 12.112C11.6609 12.1111 11.6618 12.1101 11.6627 12.1092C11.6644 12.1073 11.6661 12.1055 11.6677 12.1038C11.671 12.1003 11.6742 12.097 11.6773 12.0939C11.6834 12.0877 11.6891 12.0823 11.6943 12.0775C11.7046 12.068 11.7132 12.061 11.72 12.056C11.7336 12.0459 11.7401 12.0434 11.7382 12.0442C11.7368 12.0448 11.7235 12.0502 11.6951 12.0534C11.6666 12.0565 11.6168 12.0579 11.542 12.0452C11.2283 11.9918 10.4869 11.6878 9.23577 10.3079L8.12452 11.3154ZM6.94818 2.008C6.03549 0.655659 4.17189 0.408381 3.04806 1.64791L4.15931 2.65544C4.56587 2.20703 5.28234 2.22109 5.70485 2.84712L6.94818 2.008ZM15.0703 16.9062C14.8325 17.1684 14.5984 17.2923 14.3895 17.3139L14.5438 18.8059C15.2369 18.7343 15.7872 18.3486 16.1815 17.9137L15.0703 16.9062ZM7.84837 7.14204C8.71395 6.18735 8.77103 4.70894 8.05154 3.64286L6.80821 4.48199C7.16749 5.01433 7.10801 5.72543 6.73712 6.1345L7.84837 7.14204ZM16.0105 13.522C16.6826 13.9273 16.8328 14.9622 16.3133 15.5352L17.4245 16.5427C18.583 15.265 18.2601 13.1269 16.7851 12.2375L16.0105 13.522ZM13.1672 12.6829C13.476 12.3423 13.9393 12.2731 14.3388 12.514L15.1134 11.2294C14.1032 10.6203 12.8489 10.8008 12.0559 11.6754L13.1672 12.6829ZM9.09255 15.7965C8.23901 15.2346 7.32831 14.4728 6.39398 13.4422L5.28273 14.4498C6.29642 15.5678 7.30225 16.4138 8.26774 17.0494L9.09255 15.7965ZM14.3895 17.3139C13.9225 17.3622 13.1791 17.3748 12.2499 17.171L11.9285 18.6361C13.0353 18.8789 13.9413 18.8682 14.5438 18.8059L14.3895 17.3139Z" fill="#E7344A" fill-opacity="0.9"/>
</svg>
