<svg width="33" height="34" viewBox="0 0 33 34" fill="none" xmlns="http://www.w3.org/2000/svg">
<g clip-path="url(#clip0_6_1684)">
<path fill-rule="evenodd" clip-rule="evenodd" d="M16.2312 8.5C16.4964 8.5 16.7508 8.61194 16.9383 8.8112C17.1258 9.01046 17.2312 9.28071 17.2312 9.5625V10.9097L18.3292 10.2361C18.443 10.1653 18.5688 10.119 18.6995 10.1C18.8301 10.081 18.963 10.0897 19.0905 10.1255C19.218 10.1613 19.3376 10.2236 19.4424 10.3087C19.5471 10.3938 19.635 10.5001 19.701 10.6215C19.7669 10.7428 19.8096 10.8768 19.8266 11.0158C19.8436 11.1547 19.8346 11.2959 19.8 11.4311C19.7655 11.5663 19.7061 11.693 19.6253 11.8037C19.5445 11.9145 19.4438 12.0071 19.3292 12.0764L18.2312 12.75L19.3292 13.4236C19.4438 13.4929 19.5445 13.5855 19.6253 13.6963C19.7061 13.807 19.7655 13.9337 19.8 14.0689C19.8346 14.2041 19.8436 14.3453 19.8266 14.4842C19.8096 14.6232 19.7669 14.7572 19.701 14.8785C19.635 14.9999 19.5471 15.1062 19.4424 15.1913C19.3376 15.2764 19.218 15.3387 19.0905 15.3745C18.963 15.4103 18.8301 15.419 18.6995 15.4C18.5688 15.381 18.443 15.3347 18.3292 15.2639L17.2312 14.5903V15.9375C17.2312 16.2193 17.1258 16.4895 16.9383 16.6888C16.7508 16.8881 16.4964 17 16.2312 17C15.966 17 15.7116 16.8881 15.5241 16.6888C15.3366 16.4895 15.2312 16.2193 15.2312 15.9375V14.5903L14.1332 15.2639C14.0194 15.3347 13.8936 15.381 13.7629 15.4C13.6323 15.419 13.4994 15.4103 13.3719 15.3745C13.2444 15.3387 13.1248 15.2764 13.02 15.1913C12.9153 15.1062 12.8274 14.9999 12.7614 14.8785C12.6955 14.7572 12.6528 14.6232 12.6358 14.4842C12.6188 14.3453 12.6278 14.2041 12.6624 14.0689C12.6969 13.9337 12.7563 13.807 12.8371 13.6963C12.9179 13.5855 13.0186 13.4929 13.1332 13.4236L14.2312 12.75L13.1332 12.0764C12.9054 11.9345 12.7397 11.7026 12.6722 11.4314C12.6047 11.1601 12.6409 10.8715 12.7729 10.6285C12.905 10.3855 13.1221 10.2079 13.3769 10.1344C13.6318 10.0609 13.9036 10.0975 14.1332 10.2361L15.2312 10.9097V9.5625C15.2312 9.28071 15.3366 9.01046 15.5241 8.8112C15.7116 8.61194 15.966 8.5 16.2312 8.5ZM10.2312 20.1875C10.2312 19.9057 10.3366 19.6355 10.5241 19.4362C10.7116 19.2369 10.966 19.125 11.2312 19.125H21.2312C21.4964 19.125 21.7508 19.2369 21.9383 19.4362C22.1258 19.6355 22.2312 19.9057 22.2312 20.1875C22.2312 20.4693 22.1258 20.7395 21.9383 20.9388C21.7508 21.1381 21.4964 21.25 21.2312 21.25H11.2312C10.966 21.25 10.7116 21.1381 10.5241 20.9388C10.3366 20.7395 10.2312 20.4693 10.2312 20.1875ZM10.2312 24.4375C10.2312 24.1557 10.3366 23.8855 10.5241 23.6862C10.7116 23.4869 10.966 23.375 11.2312 23.375H21.2312C21.4964 23.375 21.7508 23.4869 21.9383 23.6862C22.1258 23.8855 22.2312 24.1557 22.2312 24.4375C22.2312 24.7193 22.1258 24.9895 21.9383 25.1888C21.7508 25.3881 21.4964 25.5 21.2312 25.5H11.2312C10.966 25.5 10.7116 25.3881 10.5241 25.1888C10.3366 24.9895 10.2312 24.7193 10.2312 24.4375Z" fill="#E7344A"/>
<path d="M6.2312 0H26.2312C27.2921 0 28.3095 0.447767 29.0596 1.2448C29.8098 2.04183 30.2312 3.12283 30.2312 4.25V29.75C30.2312 30.8772 29.8098 31.9582 29.0596 32.7552C28.3095 33.5522 27.2921 34 26.2312 34H6.2312C5.17034 34 4.15292 33.5522 3.40277 32.7552C2.65263 31.9582 2.2312 30.8772 2.2312 29.75V27.625H4.2312V29.75C4.2312 30.3136 4.44191 30.8541 4.81699 31.2526C5.19206 31.6511 5.70077 31.875 6.2312 31.875H26.2312C26.7616 31.875 27.2703 31.6511 27.6454 31.2526C28.0205 30.8541 28.2312 30.3136 28.2312 29.75V4.25C28.2312 3.68641 28.0205 3.14591 27.6454 2.7474C27.2703 2.34888 26.7616 2.125 26.2312 2.125H6.2312C5.70077 2.125 5.19206 2.34888 4.81699 2.7474C4.44191 3.14591 4.2312 3.68641 4.2312 4.25V6.375H2.2312V4.25C2.2312 3.12283 2.65263 2.04183 3.40277 1.2448C4.15292 0.447767 5.17034 0 6.2312 0Z" fill="#E7344A"/>
<path d="M2.2312 10.625V9.5625C2.2312 9.28071 2.33656 9.01046 2.52409 8.8112C2.71163 8.61194 2.96598 8.5 3.2312 8.5C3.49642 8.5 3.75077 8.61194 3.93831 8.8112C4.12584 9.01046 4.2312 9.28071 4.2312 9.5625V10.625H5.2312C5.49642 10.625 5.75077 10.7369 5.93831 10.9362C6.12584 11.1355 6.2312 11.4057 6.2312 11.6875C6.2312 11.9693 6.12584 12.2395 5.93831 12.4388C5.75077 12.6381 5.49642 12.75 5.2312 12.75H1.2312C0.965985 12.75 0.711631 12.6381 0.524094 12.4388C0.336558 12.2395 0.231201 11.9693 0.231201 11.6875C0.231201 11.4057 0.336558 11.1355 0.524094 10.9362C0.711631 10.7369 0.965985 10.625 1.2312 10.625H2.2312ZM2.2312 17V15.9375C2.2312 15.6557 2.33656 15.3855 2.52409 15.1862C2.71163 14.9869 2.96598 14.875 3.2312 14.875C3.49642 14.875 3.75077 14.9869 3.93831 15.1862C4.12584 15.3855 4.2312 15.6557 4.2312 15.9375V17H5.2312C5.49642 17 5.75077 17.1119 5.93831 17.3112C6.12584 17.5105 6.2312 17.7807 6.2312 18.0625C6.2312 18.3443 6.12584 18.6145 5.93831 18.8138C5.75077 19.0131 5.49642 19.125 5.2312 19.125H1.2312C0.965985 19.125 0.711631 19.0131 0.524094 18.8138C0.336558 18.6145 0.231201 18.3443 0.231201 18.0625C0.231201 17.7807 0.336558 17.5105 0.524094 17.3112C0.711631 17.1119 0.965985 17 1.2312 17H2.2312ZM2.2312 23.375V22.3125C2.2312 22.0307 2.33656 21.7605 2.52409 21.5612C2.71163 21.3619 2.96598 21.25 3.2312 21.25C3.49642 21.25 3.75077 21.3619 3.93831 21.5612C4.12584 21.7605 4.2312 22.0307 4.2312 22.3125V23.375H5.2312C5.49642 23.375 5.75077 23.4869 5.93831 23.6862C6.12584 23.8855 6.2312 24.1557 6.2312 24.4375C6.2312 24.7193 6.12584 24.9895 5.93831 25.1888C5.75077 25.3881 5.49642 25.5 5.2312 25.5H1.2312C0.965985 25.5 0.711631 25.3881 0.524094 25.1888C0.336558 24.9895 0.231201 24.7193 0.231201 24.4375C0.231201 24.1557 0.336558 23.8855 0.524094 23.6862C0.711631 23.4869 0.965985 23.375 1.2312 23.375H2.2312Z" fill="#E7344A"/>
</g>
<defs>
<clipPath id="clip0_6_1684">
<rect width="32" height="34" fill="white" transform="translate(0.231201)"/>
</clipPath>
</defs>
</svg>
