<svg width="21" height="23" viewBox="0 0 21 23" fill="none" xmlns="http://www.w3.org/2000/svg">
<path d="M13.213 14.6187L13.7687 15.1225L13.7687 15.1225L13.213 14.6187ZM13.6116 14.1791L13.0559 13.6754L13.6116 14.1791ZM15.7261 13.8717L15.3388 14.514L15.7261 13.8717ZM17.3978 14.8797L17.0105 15.522L17.3978 14.8797ZM17.8689 18.039L18.4245 18.5427L17.8689 18.039ZM16.6259 19.4099L16.0703 18.9062L16.6259 19.4099ZM15.4667 20.0599L15.5438 20.8059L15.4667 20.0599ZM6.83835 15.946L7.39398 15.4422L6.83835 15.946ZM3.37646 7.19082C3.35526 6.77714 3.00274 6.45898 2.58907 6.48017C2.17539 6.50137 1.85723 6.8539 1.87842 7.26757L3.37646 7.19082ZM8.04178 8.91507L8.59741 9.41883L8.04178 8.91507ZM8.29274 8.63827L8.84837 9.14204V9.14204L8.29274 8.63827ZM8.42988 6.06243L9.05154 5.64286L8.42988 6.06243ZM7.32651 4.42756L6.70485 4.84712L6.70485 4.84712L7.32651 4.42756ZM4.04806 3.64791C3.76984 3.95477 3.79305 4.42908 4.09992 4.7073C4.40678 4.98552 4.88109 4.9623 5.15931 4.65544L4.04806 3.64791ZM9.68015 12.8117L10.2358 12.3079L9.68015 12.8117ZM9.26774 19.0494C9.61371 19.2771 10.0788 19.1813 10.3066 18.8354C10.5343 18.4894 10.4385 18.0243 10.0926 17.7965L9.26774 19.0494ZM13.2499 19.171C12.8453 19.0822 12.4454 19.3383 12.3567 19.7429C12.2679 20.1475 12.5239 20.5474 12.9285 20.6361L13.2499 19.171ZM13.7687 15.1225L14.1672 14.6829L13.0559 13.6754L12.6574 14.1149L13.7687 15.1225ZM15.3388 14.514L17.0105 15.522L17.7851 14.2375L16.1134 13.2294L15.3388 14.514ZM17.3133 17.5352L16.0703 18.9062L17.1815 19.9137L18.4245 18.5427L17.3133 17.5352ZM7.39398 15.4422C4.01412 11.7144 3.44711 8.56985 3.37646 7.19082L1.87842 7.26757C1.96553 8.96766 2.65446 12.448 6.28273 16.4498L7.39398 15.4422ZM8.59741 9.41883L8.84837 9.14204L7.73712 8.1345L7.48615 8.4113L8.59741 9.41883ZM9.05154 5.64286L7.94818 4.008L6.70485 4.84712L7.80821 6.48199L9.05154 5.64286ZM8.04178 8.91507C7.48615 8.4113 7.48548 8.41205 7.48481 8.41279C7.48458 8.41305 7.4839 8.4138 7.48344 8.41432C7.48252 8.41534 7.48158 8.41639 7.48063 8.41746C7.47873 8.4196 7.47678 8.42182 7.47477 8.42414C7.47075 8.42877 7.46652 8.43375 7.46209 8.43908C7.45323 8.44975 7.44358 8.46186 7.43334 8.47542C7.41284 8.50255 7.38994 8.53553 7.36608 8.57459C7.31822 8.65294 7.26708 8.75488 7.22402 8.88166C7.13657 9.13912 7.08977 9.47729 7.14858 9.89782C7.26431 10.7253 7.78166 11.8343 9.12452 13.3154L10.2358 12.3079C8.99301 10.9372 8.69117 10.0979 8.63412 9.69005C8.60655 9.49291 8.63496 9.39164 8.64432 9.36409C8.64966 9.34836 8.65233 9.3464 8.64618 9.35647C8.64317 9.3614 8.63809 9.36914 8.63021 9.37958C8.62627 9.38479 8.62163 9.39068 8.6162 9.39722C8.61348 9.40049 8.61056 9.40393 8.60744 9.40753C8.60587 9.40934 8.60426 9.41118 8.60259 9.41306C8.60175 9.414 8.6009 9.41495 8.60004 9.41592C8.59961 9.4164 8.59895 9.41713 8.59873 9.41737C8.59807 9.4181 8.59741 9.41883 8.04178 8.91507ZM9.12452 13.3154C10.459 14.7873 11.4841 15.3868 12.2904 15.524C12.7071 15.5949 13.0493 15.5387 13.311 15.4305C13.4384 15.3779 13.539 15.3162 13.6146 15.26C13.6523 15.232 13.6838 15.2054 13.7093 15.182C13.722 15.1702 13.7333 15.1593 13.7432 15.1493C13.7481 15.1443 13.7527 15.1396 13.757 15.1351C13.7591 15.1328 13.7611 15.1307 13.7631 15.1286C13.764 15.1275 13.765 15.1265 13.7659 15.1255C13.7664 15.1249 13.7671 15.1242 13.7673 15.1239C13.768 15.1232 13.7687 15.1225 13.213 14.6187C12.6574 14.1149 12.6581 14.1142 12.6587 14.1135C12.659 14.1132 12.6596 14.1125 12.6601 14.112C12.6609 14.1111 12.6618 14.1101 12.6627 14.1092C12.6644 14.1073 12.6661 14.1055 12.6677 14.1038C12.671 14.1003 12.6742 14.097 12.6773 14.0939C12.6834 14.0877 12.6891 14.0823 12.6943 14.0775C12.7046 14.068 12.7132 14.061 12.72 14.056C12.7336 14.0459 12.7401 14.0434 12.7382 14.0442C12.7368 14.0448 12.7235 14.0502 12.6951 14.0534C12.6666 14.0565 12.6168 14.0579 12.542 14.0452C12.2283 13.9918 11.4869 13.6878 10.2358 12.3079L9.12452 13.3154ZM7.94818 4.008C7.03549 2.65566 5.17189 2.40838 4.04806 3.64791L5.15931 4.65544C5.56587 4.20703 6.28234 4.22109 6.70485 4.84712L7.94818 4.008ZM16.0703 18.9062C15.8325 19.1684 15.5984 19.2923 15.3895 19.3139L15.5438 20.8059C16.2369 20.7343 16.7872 20.3486 17.1815 19.9137L16.0703 18.9062ZM8.84837 9.14204C9.71395 8.18735 9.77103 6.70894 9.05154 5.64286L7.80821 6.48199C8.16749 7.01433 8.10801 7.72543 7.73712 8.1345L8.84837 9.14204ZM17.0105 15.522C17.6826 15.9273 17.8328 16.9622 17.3133 17.5352L18.4245 18.5427C19.583 17.265 19.2601 15.1269 17.7851 14.2375L17.0105 15.522ZM14.1672 14.6829C14.476 14.3423 14.9393 14.2731 15.3388 14.514L16.1134 13.2294C15.1032 12.6203 13.8489 12.8008 13.0559 13.6754L14.1672 14.6829ZM10.0926 17.7965C9.23901 17.2346 8.32831 16.4728 7.39398 15.4422L6.28273 16.4498C7.29642 17.5678 8.30225 18.4138 9.26774 19.0494L10.0926 17.7965ZM15.3895 19.3139C14.9225 19.3622 14.1791 19.3748 13.2499 19.171L12.9285 20.6361C14.0353 20.8789 14.9413 20.8682 15.5438 20.8059L15.3895 19.3139Z" fill="#E7344A" fill-opacity="0.9"/>
</svg>
