<svg width="34" height="34" viewBox="0 0 34 34" fill="none" xmlns="http://www.w3.org/2000/svg">
<path d="M33.3362 16.3532C33.287 16.2456 32.1236 13.6624 29.5536 11.0925C26.1151 7.6593 21.7815 5.84375 17.0002 5.84375C12.219 5.84375 7.88529 7.6593 4.45076 11.0925C1.88084 13.6624 0.717404 16.2456 0.664279 16.3532C0.574302 16.5572 0.527832 16.7777 0.527832 17.0007C0.527832 17.2236 0.574302 17.4441 0.664279 17.6481C0.713419 17.757 1.87686 20.3389 4.44811 22.9088C7.88529 26.342 12.219 28.1562 17.0002 28.1562C21.7815 28.1562 26.1151 26.342 29.5483 22.9088C32.1196 20.3389 33.283 17.757 33.3322 17.6481C33.4228 17.4444 33.4699 17.224 33.4706 17.0011C33.4713 16.7781 33.4255 16.5575 33.3362 16.3532ZM27.2188 20.736C24.3673 23.5437 20.9301 24.9688 17.0002 24.9688C13.0703 24.9688 9.63311 23.5437 6.78561 20.7347C5.66513 19.626 4.7013 18.3695 3.92084 17C4.70153 15.631 5.66534 14.375 6.78561 13.2666C9.63443 10.4563 13.0703 9.03125 17.0002 9.03125C20.9301 9.03125 24.366 10.4563 27.2148 13.2666C28.3352 14.3749 29.299 15.631 30.0796 17C29.299 18.3694 28.3352 19.6259 27.2148 20.7347L27.2188 20.736ZM17.0002 11.1562C15.8444 11.1562 14.7146 11.499 13.7536 12.1411C12.7926 12.7832 12.0436 13.6959 11.6013 14.7637C11.159 15.8315 11.0433 17.0065 11.2688 18.1401C11.4942 19.2736 12.0508 20.3149 12.8681 21.1322C13.6853 21.9494 14.7266 22.506 15.8602 22.7315C16.9937 22.9569 18.1687 22.8412 19.2365 22.3989C20.3043 21.9566 21.217 21.2076 21.8591 20.2466C22.5012 19.2856 22.844 18.1558 22.844 17C22.8422 15.4507 22.226 13.9653 21.1304 12.8698C20.0349 11.7743 18.5495 11.158 17.0002 11.1562ZM17.0002 19.6562C16.4749 19.6562 15.9613 19.5005 15.5245 19.2086C15.0877 18.9167 14.7472 18.5019 14.5462 18.0165C14.3451 17.5311 14.2925 16.9971 14.395 16.4818C14.4975 15.9665 14.7505 15.4932 15.122 15.1217C15.4934 14.7503 15.9667 14.4973 16.482 14.3948C16.9973 14.2923 17.5314 14.3449 18.0167 14.5459C18.5021 14.747 18.9169 15.0874 19.2088 15.5243C19.5007 15.9611 19.6565 16.4746 19.6565 17C19.6565 17.7045 19.3766 18.3801 18.8785 18.8783C18.3803 19.3764 17.7047 19.6562 17.0002 19.6562Z" fill="#333333"/>
</svg>
