<svg width="36" height="36" viewBox="0 0 36 36" fill="none" xmlns="http://www.w3.org/2000/svg">
<path d="M18 2.25C11.797 2.25 6.75 7.07695 6.75 13.0078C6.75 15.8323 8.03742 19.5884 10.5764 24.172C12.6155 27.8522 14.9745 31.1801 16.2014 32.8359C16.4087 33.1189 16.6798 33.349 16.9927 33.5076C17.3055 33.6662 17.6513 33.7488 18.0021 33.7488C18.3529 33.7488 18.6987 33.6662 19.0116 33.5076C19.3244 33.349 19.5955 33.1189 19.8028 32.8359C21.0277 31.1801 23.3888 27.8522 25.4278 24.172C27.9626 19.5898 29.25 15.8337 29.25 13.0078C29.25 7.07695 24.203 2.25 18 2.25ZM18 18C17.11 18 16.24 17.7361 15.4999 17.2416C14.7599 16.7471 14.1831 16.0443 13.8425 15.2221C13.5019 14.3998 13.4128 13.495 13.5865 12.6221C13.7601 11.7492 14.1887 10.9474 14.818 10.318C15.4474 9.68868 16.2492 9.2601 17.1221 9.08647C17.995 8.91283 18.8998 9.00195 19.7221 9.34254C20.5443 9.68314 21.2471 10.2599 21.7416 10.9999C22.2361 11.74 22.5 12.61 22.5 13.5C22.4987 14.6931 22.0242 15.8369 21.1805 16.6805C20.3369 17.5242 19.1931 17.9987 18 18Z" fill="#E7344A"/>
</svg>
