<svg width="38" height="38" viewBox="0 0 38 38" fill="none" xmlns="http://www.w3.org/2000/svg">
<g clip-path="url(#clip0_6_1105)">
<path d="M17.4167 31.7493H17.4165C16.7437 31.7496 16.0958 31.4955 15.6024 31.038C15.1835 30.6495 14.9024 30.1388 14.7963 29.5827H23.2029C23.1099 30.0711 22.8813 30.5274 22.5387 30.8969C22.0835 31.3878 21.4604 31.6894 20.7933 31.7421L20.575 31.7493H17.4167ZM29.5833 19.209V19.3271L29.6361 19.4326L32.521 25.2023L32.521 25.2023C32.6107 25.3818 32.6556 25.5804 32.6519 25.781C32.6481 25.9816 32.5958 26.1784 32.4994 26.3543C32.4029 26.5303 32.2653 26.6803 32.0982 26.7915C31.9345 26.9004 31.7473 26.9689 31.552 26.9913L31.3971 26.9993H6.58984H6.58969C6.38895 26.9994 6.19119 26.9508 6.01336 26.8577C5.83552 26.7646 5.68291 26.6297 5.56861 26.4647C5.4543 26.2997 5.38171 26.1094 5.35706 25.9102C5.3329 25.715 5.35546 25.517 5.42279 25.3323L5.48473 25.1909L8.36388 19.4326L8.41667 19.3271V19.209V13.2493C8.41667 10.4425 9.5317 7.75056 11.5165 5.7658C13.5012 3.78104 16.1931 2.66602 19 2.66602C21.7441 2.66597 24.3809 3.73175 26.3543 5.63853C28.3266 7.5443 29.482 10.1413 29.5771 12.8821L29.5833 13.2536V19.209Z" fill="#E7344A" stroke="#333333"/>
</g>
<defs>
<clipPath id="clip0_6_1105">
<rect width="38" height="38" fill="white"/>
</clipPath>
</defs>
</svg>
