<svg width="19" height="17" viewBox="0 0 19 17" fill="none" xmlns="http://www.w3.org/2000/svg">
<path d="M9.59139 14.3361L9.50039 14.4277L9.40029 14.3361C5.07779 10.3902 2.22039 7.78092 2.22039 5.13503C2.22039 3.30397 3.58539 1.93067 5.40539 1.93067C6.80679 1.93067 8.17179 2.8462 8.65409 4.09133H10.3467C10.829 2.8462 12.194 1.93067 13.5954 1.93067C15.4154 1.93067 16.7804 3.30397 16.7804 5.13503C16.7804 7.78092 13.923 10.3902 9.59139 14.3361ZM13.5954 0.0996094C12.012 0.0996094 10.4923 0.84119 9.50039 2.00391C8.50849 0.84119 6.98879 0.0996094 5.40539 0.0996094C2.60259 0.0996094 0.400391 2.30604 0.400391 5.13503C0.400391 8.58658 3.49439 11.4156 8.18089 15.6911L9.50039 16.8996L10.8199 15.6911C15.5064 11.4156 18.6004 8.58658 18.6004 5.13503C18.6004 2.30604 16.3982 0.0996094 13.5954 0.0996094Z" fill="#E7344A"/>
</svg>
