<svg width="55" height="65" viewBox="0 0 55 65" fill="none" xmlns="http://www.w3.org/2000/svg">
<g clip-path="url(#clip0_6_1012)">
<path d="M36.6667 18.0556C36.6667 19.0133 36.3447 19.9318 35.7717 20.609C35.1987 21.2862 34.4215 21.6667 33.6111 21.6667H21.3889C20.5785 21.6667 19.8013 21.2862 19.2283 20.609C18.6553 19.9318 18.3333 19.0133 18.3333 18.0556V3.61111C18.3333 2.65338 18.6553 1.73488 19.2283 1.05767C19.8013 0.380455 20.5785 0 21.3889 0L33.6111 0C34.4215 0 35.1987 0.380455 35.7717 1.05767C36.3447 1.73488 36.6667 2.65338 36.6667 3.61111V18.0556ZM0 25.2778V61.3889C0 62.3466 0.321924 63.2651 0.894952 63.9423C1.46798 64.6195 2.24517 65 3.05556 65H51.9444C52.7548 65 53.532 64.6195 54.1051 63.9423C54.6781 63.2651 55 62.3466 55 61.3889V25.2778H0Z" fill="#CCD6DD"/>
<path d="M27.5 21.666H3.05556C2.24517 21.666 1.46798 22.0465 0.894951 22.7237C0.321924 23.4009 0 24.3194 0 25.2771H30.5556C30.5556 24.3194 30.2336 23.4009 29.6606 22.7237C29.0876 22.0465 28.3104 21.666 27.5 21.666Z" fill="#99AAB5"/>
<path d="M51.9443 21.666H27.4999C26.6895 21.666 25.9123 22.0465 25.3393 22.7237C24.7663 23.4009 24.4443 24.3194 24.4443 25.2771H54.9999C54.9999 24.3194 54.678 23.4009 54.1049 22.7237C53.5319 22.0465 52.7547 21.666 51.9443 21.666Z" fill="#99AAB5"/>
<path d="M3.05566 39.722H51.9445V46.9442H3.05566V39.722ZM3.05566 28.8887H51.9445V36.1109H3.05566V28.8887ZM3.05566 50.5553H51.9445V57.7776H3.05566V50.5553Z" fill="#55ACEE"/>
<path d="M12.2222 21.666H42.7777V64.9993H12.2222V21.666Z" fill="#E1E8ED"/>
<path d="M15.2778 36.1107H39.7223V43.3329H15.2778V36.1107ZM15.2778 25.2773H39.7223V32.4996H15.2778V25.2773ZM15.2778 46.944H39.7223V54.1662H15.2778V46.944Z" fill="#55ACEE"/>
<path d="M19.8613 57.7773H35.1391V64.9996H19.8613V57.7773Z" fill="#3B88C3"/>
<path d="M33.6109 7.22135H29.0276V1.80469H25.972V7.22135H21.3887V10.8325H25.972V16.2491H29.0276V10.8325H33.6109V7.22135Z" fill="#DD2E44"/>
<path d="M39.7222 18.0547H15.2777C14.4673 18.0547 13.6901 18.4351 13.1171 19.1124C12.5441 19.7896 12.2222 20.7081 12.2222 21.6658H42.7777C42.7777 20.7081 42.4558 19.7896 41.8828 19.1124C41.3097 18.4351 40.5325 18.0547 39.7222 18.0547Z" fill="#99AAB5"/>
</g>
<defs>
<clipPath id="clip0_6_1012">
<rect width="55" height="65" fill="white"/>
</clipPath>
</defs>
</svg>
